<?xml version="1.0" encoding="UTF-8"?>
<svg id="Layer_1" data-name="Layer 1" xmlns="http://www.w3.org/2000/svg" viewBox="0 0 1080 1080">
  <defs>
    <style>
      .cls-1 {
        fill: #996952;
      }
    </style>
  </defs>
  <g>
    <path class="cls-1" d="M360.31,590.55c-10.3,0-9.36-15.01-9.36-23.97v-78.82c0-10.36-8.49-18.72-18.72-18.72h-16.05c-1.9,0-3.37,1.38-3.32,3.21.05,1.66,1.3,2.84,3.01,2.99,1.45.13,2.56.49,3.39,1.12,3.34,2.53,3.34,10.27,3.34,23.09v49.87c0,13.77-1.15,24.13-3.12,30.89-3.86,13.2-15.87,12.7-17.83.48-.68-4.21-.83-9.87-.83-17.22v-75.71c0-11.39-9.7-18.72-18.72-18.72h-17.37c-1.84,0-3.34,1.38-3.34,3.07s1.37,2.96,3.13,3.06c1.35.08,3.21.46,4.37,1.82,2.92,3.43,3.06,11.95,3.06,25.58v52.27c0,57.75,46.29,49.13,53.58,29.45,4.4,12.52,16.93,12.47,22.33,12.47h12.13c2.38,0,3.36-1.78,3.36-3.14,0-1.6-1.3-3.07-3.04-3.07Z"/>
    <path class="cls-1" d="M409.85,590.56c-9.18-.76-8.52-13.04-8.52-25.4,0,0-.03-131.38-.03-136.61,0-10.59-8.72-18.72-18.72-18.72h-18.11c-1.87,0-3.39,1.39-3.39,3.11,0,1.62,1.33,2.95,3.09,3.09,9.18.76,8.52,13.04,8.52,25.4v136.61c0,10.59,8.72,18.72,18.72,18.72h18.15c1.87,0,3.39-1.39,3.39-3.11,0-1.62-1.33-2.95-3.09-3.1Z"/>
    <path class="cls-1" d="M554.75,590.56c-9.18-.76-8.52-13.04-8.52-25.4,0,0-.03-72.16-.03-77.39,0-10.59-8.72-18.72-18.72-18.72h-18.11c-1.87,0-3.39,1.39-3.39,3.11,0,1.62,1.33,2.95,3.09,3.09,9.18.76,8.52,13.04,8.52,25.4v77.39c0,10.59,8.72,18.72,18.72,18.72h18.15c1.87,0,3.39-1.39,3.39-3.11,0-1.62-1.33-2.95-3.09-3.1Z"/>
    <path class="cls-1" d="M530.77,453.38c8.83,0,16.02-7.4,16.02-16.5,0-10.91-7-17.46-16.02-17.46-11.36,0-15.75,10.1-15.75,17.46,0,8.61,6.02,16.5,15.75,16.5Z"/>
    <path class="cls-1" d="M178.53,409.82c-22.54,0-36.53,11.24-42.51,23.14-9.77,19.45.14,47.2,26.25,47.2,18.97,0,32.23-9.34,32.23-25.81,0-9.51-5.84-17.44-12.84-19.18-1.86-.46-4.32-.82-5.4.79-.53.78-.54,1.77-.09,2.59,6.35,11.79-2.54,18.27-9.71,18.27-11.7,0-16.24-14.64-14.16-24.1,4.09-18.56,33.7-22.42,48.21-3.57,8.22,10.67,16.17,32.19,16.17,77.26,0,20.87,3.05,80.9-30.77,83.56-3.98.31-7.4-2.6-7.4-6.3v-93.01c0-1.97-1.51-3.39-3.75-2.92-6.51,1.35-14.8,1.87-23.61-.05-3.01-.66-3.88,1.93-3.88,2.88v70.03c0,9.97-.44,17.59-1.7,22.66-1.95,7.8-6.68,7.26-8.42,7.32-1.85.06-3.31,1.39-3.33,3.05-.02,1.5,1.01,3.12,3.37,3.12h41.16c9.99,0,17.44-.84,24.17-2.74,13.18-3.71,48.33-20.38,48.33-88.09s-35.27-96.1-72.3-96.1Z"/>
    <path class="cls-1" d="M656.2,590.56c-9.18-.76-8.52-13.04-8.52-25.4,0,0-.01-29.87-.02-52.57,0-10.23.92-49.84-33.1-45.59-7.01.88-14.65,4.18-19.42,13.06-3-6.57-9.66-11-17.04-11h-18.11c-1.87,0-3.39,1.39-3.39,3.11,0,1.62,1.33,2.95,3.09,3.09,9.18.76,8.52,13.04,8.52,25.4v77.39c0,10.59,8.72,18.72,18.72,18.72h18.15c1.87,0,3.39-1.39,3.39-3.11,0-1.62-1.33-2.95-3.09-3.1-9.18-.76-8.52-13.04-8.52-25.4,0,0-.01-28.65-.02-51.15.21-11.54,1.24-21.08,3.44-27.58,2.86-8.48,7.34-10.8,11.08-9.91,6.89,1.64,7.36,10.1,7.64,21.3.02.81.05,80.24.05,80.24,0,10.59,8.72,18.72,18.72,18.72h18.15c1.87,0,3.39-1.39,3.39-3.11,0-1.62-1.33-2.95-3.09-3.1Z"/>
    <path class="cls-1" d="M800.73,590.56c-9.18-.76-8.52-13.04-8.52-25.4,0,0-.03-131.38-.03-136.61,0-10.59-8.72-18.72-18.72-18.72h-18.11c-1.87,0-3.39,1.39-3.39,3.11,0,1.62,1.33,2.95,3.09,3.09,9.18.76,8.52,13.04,8.52,25.4v136.61c0,10.59,8.72,18.72,18.72,18.72h18.15c1.87,0,3.39-1.39,3.39-3.11,0-1.62-1.33-2.95-3.09-3.1Z"/>
    <path class="cls-1" d="M851.23,590.56c-9.18-.76-8.52-13.04-8.52-25.4,0,0-.03-131.38-.03-136.61,0-10.59-8.72-18.72-18.72-18.72h-18.11c-1.87,0-3.39,1.39-3.39,3.11,0,1.62,1.33,2.95,3.09,3.09,9.18.76,8.52,13.04,8.52,25.4v136.61c0,10.59,8.72,18.72,18.72,18.72h18.15c1.87,0,3.39-1.39,3.39-3.11,0-1.62-1.33-2.95-3.09-3.1Z"/>
    <path class="cls-1" d="M493.45,557.43c-1.94-.51-3.71,1.11-3.85,2.94-1.44,19.14-8.08,28.71-17.91,28.71-4.95,0-13.07-1.77-16.95-17.11-3.06-12.09-3.48-30.34-3.48-47.58,0-43.08,7.96-49.46,13.53-51.05,6.52-1.86,13.79,2.74,13.48,12.97-.36,11.9-10.06,9.47-11.26,9.35-1.12-.11-2.71.71-2.61,2.81.1,1.97,3.1,14.85,15.17,14.85,25.89,0,22.07-46.67-11.08-46.67-14.22,0-25.83,7.08-34.02,19.9-8.08,12.65-12.35,30.3-12.35,51.04,0,65.74,44.15,64.19,54.94,59.44,8.63-3.8,16.64-11.76,18.77-36.09.08-.96-.27-2.93-2.39-3.49Z"/>
    <path class="cls-1" d="M740.27,557.43c-1.94-.51-3.71,1.11-3.85,2.94-1.44,19.14-8.08,28.71-17.91,28.71-4.95,0-14.43-1.77-18.31-17.11-1.74-6.88-2.63-15.74-3.07-25.28-.44-9.43,6.97-11.74,15.2-14.93,6.35-2.46,13.55-5.24,20.58-10.94,14.38-11.66,17.37-40.02-4.15-50.64-9.74-4.81-22.92-5.59-34.62,1.07-25.99,14.8-26.56,57.37-26.56,66.33,0,65.74,45.51,64.19,56.3,59.44,8.63-3.8,16.64-11.76,18.77-36.09.08-.96-.27-2.93-2.39-3.49ZM698.19,493.5c1.12-9.58,3.06-15.54,5.94-18.21,2.45-2.28,6.51-2.23,8.66-.23,3.82,3.56,5.01,14.51,4.34,24.46-.36,5.43-1.74,20.5-11.96,26.62-1.09.65-6.74,3.88-8.36,4.96-.04-17.45.39-29.14,1.38-37.6Z"/>
    <path class="cls-1" d="M944.62,590.55c-10.3,0-9.36-15.01-9.36-23.97,0,0-.09-58.78-.09-61.14,0-16.49-4.32-38.81-35.43-38.81-19.95,0-31.05,10.1-33.56,21.84-2.59,12.13,2.81,24.8,16.3,24.8,12.07,0,15.07-12.87,15.17-14.84.11-2.1-1.49-2.92-2.61-2.81-1.17.12-10.58,2.43-11.21-8.83-.39-6.84,4.05-13.29,11.42-13.29,10.89,0,11.69,14.64,11.69,27.6,0,18.45-12.46,22.51-23.91,28.41,0,0-21.7,8.27-22.26,34.98-.57,27.29,14.8,33.43,21.64,34.2,19.16,2.15,26.01-10.58,27.42-14.41,4.4,12.52,16.93,12.47,22.33,12.47h12.13c2.38,0,3.36-1.78,3.36-3.14,0-1.6-1.3-3.07-3.04-3.07ZM906.92,549.33c0,14.26-.1,24.25-1.89,30.08-2.65,8.61-12.69,8.74-15.7-1.52-1.09-3.7-1.85-9.35-1.85-17.99,0-28.07,17.01-32.13,19.47-37.04l-.03,26.48Z"/>
  </g>
  <g>
    <g>
      <path class="cls-1" d="M332.53,641.81c-5.91,0-11.67,3.27-11.67,12.85,0,8.02,5.39,11.67,11.85,11.67,3.97,0,6.98-2.27,8.43-3.9.26-.26.37-.37.78-.37.56,0,.89.41.89.85,0,.48-.45,1.08-.67,1.34-1.75,2.01-5.16,4.12-9.58,4.12-7.62,0-13.93-4.68-13.93-13.71,0-10.48,6.91-14.9,13.89-14.9,5.39,0,9.18,2.86,9.18,6.76,0,1.67-.78,3.01-1.63,3.01-.56,0-.93-.3-.93-.78,0-.41.37-.52.37-1.93.11-3.12-3.01-5.01-6.98-5.01Z"/>
      <path class="cls-1" d="M332.56,670.18c-9.41,0-15.73-6.23-15.73-15.51,0-11.53,7.88-16.7,15.69-16.7,6.36,0,10.98,3.6,10.98,8.56,0,2.74-1.48,4.81-3.44,4.81-1.56,0-2.73-1.11-2.73-2.58,0-.51.16-.88.25-1.09.06-.14.12-.29.12-.84.02-.72-.19-1.27-.65-1.75-.88-.91-2.58-1.46-4.53-1.46-3.68,0-9.86,1.44-9.86,11.05,0,6.18,3.76,9.86,10.05,9.86,3.07,0,5.67-1.7,7.08-3.29.41-.42.97-.98,2.13-.98,1.51,0,2.69,1.17,2.69,2.65,0,1.01-.6,1.92-1.1,2.51-2.01,2.31-5.93,4.76-10.95,4.76ZM341.05,662.69h0Z"/>
    </g>
    <g>
      <path class="cls-1" d="M362.72,661.76l-2.49,5.53c-.19.37-.37.71-1.3.71-.67,0-.97-.41-.97-.85,0-.15.11-.37.11-.37l11.85-25.78c.33-.71.56-1.08,1.45-1.08.82,0,1.19.48,1.41,1l11.89,25.86s.11.3.11.52,0,.71-.97.71c-.78,0-1.15-.37-1.3-.71l-2.49-5.53h-17.31ZM363.65,659.72h15.45l-7.73-17.13-7.73,17.13Z"/>
      <path class="cls-1" d="M383.82,669.81c-1.35,0-2.46-.67-2.95-1.78l-2.01-4.46h-14.98l-2.01,4.47c-.4.8-1.1,1.77-2.94,1.77-1.58,0-2.77-1.14-2.77-2.65,0-.48.17-.91.31-1.18l11.82-25.72c.36-.76,1.01-2.13,3.09-2.13.81,0,2.29.27,3.07,2.1l11.87,25.81c.12.3.28.77.28,1.27,0,1.52-1.09,2.51-2.77,2.51ZM359.72,667.52h0s0,0,0,0ZM384.16,666.55h0s0,0,0,0ZM366.44,657.92h9.88l-4.94-10.95-4.94,10.95Z"/>
    </g>
    <g>
      <path class="cls-1" d="M409.78,666.33c4.87,0,8.43-2.3,8.43-5.83,0-3.98-4.05-4.83-8.25-6.2-4.42-1.45-8.95-2.38-8.95-7.5,0-4.09,3.27-7.02,9.32-7.02,5.35,0,8.06,2.64,8.06,5.54,0,1.75-1,2.82-1.97,2.82-.41,0-.78-.19-.78-.67,0-.59.74-1.04.74-2.12,0-1.9-2.04-3.53-6.06-3.53-4.42,0-7.28,1.49-7.28,4.49,0,3.46,2.45,4.31,7.69,5.91,4.61,1.41,9.55,2.68,9.55,7.95,0,4.98-4.35,8.21-10.44,8.21s-9.88-2.12-9.88-6.8c0-2.19,1.08-3.08,1.97-3.08.56,0,.85.22.85.6,0,.48-.78.78-.78,2.49,0,3.08,3.05,4.76,7.76,4.76Z"/>
      <path class="cls-1" d="M409.86,670.18c-7.32,0-11.68-3.21-11.68-8.6,0-3.21,1.9-4.88,3.77-4.88,1.74,0,2.65,1.2,2.65,2.4,0,.7-.32,1.19-.51,1.48-.16.25-.27.42-.27,1.01,0,2.74,4.57,2.95,5.96,2.95,3.19,0,6.63-1.26,6.63-4.03,0-2.07-1.67-2.8-5.77-4.1l-2.41-.77c-4.02-1.27-9.02-2.85-9.02-8.84,0-5.36,4.37-8.82,11.13-8.82s9.86,3.8,9.86,7.34c0,2.89-1.92,4.62-3.77,4.62-1.5,0-2.58-1.04-2.58-2.47,0-.75.33-1.3.54-1.66.17-.29.2-.35.2-.46,0-.84-1.49-1.73-4.25-1.73-2.05,0-5.48.35-5.48,2.69,0,1.94.84,2.48,6.41,4.18l.6.18c4.55,1.39,10.22,3.11,10.22,9.49,0,5.89-5.03,10.01-12.24,10.01Z"/>
    </g>
    <g>
      <path class="cls-1" d="M440.24,661.76l-2.49,5.53c-.19.37-.37.71-1.3.71-.67,0-.97-.41-.97-.85,0-.15.11-.37.11-.37l11.85-25.78c.33-.71.56-1.08,1.45-1.08.82,0,1.19.48,1.41,1l11.89,25.86s.11.3.11.52,0,.71-.97.71c-.78,0-1.15-.37-1.3-.71l-2.49-5.53h-17.31ZM441.17,659.72h15.45l-7.73-17.13-7.73,17.13Z"/>
      <path class="cls-1" d="M461.34,669.81c-1.35,0-2.46-.67-2.95-1.78l-2.01-4.46h-14.98l-2.01,4.47c-.4.8-1.1,1.77-2.94,1.77-1.58,0-2.77-1.14-2.77-2.65,0-.48.17-.91.31-1.18l11.82-25.72c.36-.76,1.01-2.13,3.09-2.13.81,0,2.29.27,3.07,2.1l11.87,25.81c.12.3.28.77.28,1.27,0,1.52-1.09,2.51-2.77,2.51ZM437.24,667.52h0s0,0,0,0ZM461.68,666.55h0s0,0,0,0ZM443.96,657.92h9.88l-4.94-10.95-4.94,10.95Z"/>
    </g>
    <g>
      <path class="cls-1" d="M498,668c-.44,0-.74-.3-.74-.74v-26.38c0-.44.3-.74.74-.74h8.55c8.66,0,14.93,3.57,14.93,13.63,0,7.76-3.49,14.23-13.93,14.23h-9.55ZM507.55,665.96c8.8,0,11.74-5.39,11.74-12.19,0-8.77-5.27-11.59-12.74-11.59h-7.06v23.78h8.06Z"/>
      <path class="cls-1" d="M507.55,669.81h-9.55c-1.45,0-2.54-1.09-2.54-2.54v-26.38c0-1.45,1.09-2.54,2.54-2.54h8.55c10.79,0,16.73,5.48,16.73,15.43s-5.59,16.03-15.73,16.03ZM501.28,664.16h6.26c6.69,0,9.94-3.4,9.94-10.39s-3.38-9.79-10.94-9.79h-5.26v20.17Z"/>
    </g>
    <g>
      <path class="cls-1" d="M556.35,665.96s.85.07.85,1.04-.85,1-.85,1h-17.05c-.44,0-.74-.3-.74-.74v-26.38c0-.44.3-.74.74-.74h15.97s.86.07.86,1-.86,1.08-.86,1.08h-14.53v13.78h12.33s.86.07.86,1-.86,1.04-.86,1.04h-12.33v7.91h15.6Z"/>
      <path class="cls-1" d="M556.43,669.81h-17.13c-1.45,0-2.54-1.09-2.54-2.54v-26.38c0-1.45,1.09-2.54,2.54-2.54h16.13c1.24.12,2.5,1.11,2.5,2.8s-1.22,2.71-2.42,2.86h-.23s-12.72.01-12.72.01v10.18h10.69c1.24.12,2.5,1.11,2.5,2.8s-1.26,2.73-2.5,2.83h-.16s-10.53,0-10.53,0v4.31h13.96c1.24.11,2.5,1.12,2.5,2.84s-1.26,2.69-2.5,2.8h-.08Z"/>
    </g>
    <g>
      <path class="cls-1" d="M594.72,668c-.44,0-.74-.3-.74-.74v-26.38c0-.44.3-.74.74-.74h8.55c8.66,0,14.93,3.57,14.93,13.63,0,7.76-3.49,14.23-13.93,14.23h-9.55ZM604.27,665.96c8.8,0,11.74-5.39,11.74-12.19,0-8.77-5.27-11.59-12.74-11.59h-7.06v23.78h8.06Z"/>
      <path class="cls-1" d="M604.27,669.81h-9.55c-1.45,0-2.54-1.09-2.54-2.54v-26.38c0-1.45,1.09-2.54,2.54-2.54h8.55c10.79,0,16.73,5.48,16.73,15.43s-5.59,16.03-15.73,16.03ZM598,664.16h6.26c6.69,0,9.94-3.4,9.94-10.39s-3.38-9.79-10.94-9.79h-5.26v20.17Z"/>
    </g>
    <g>
      <path class="cls-1" d="M656.19,641.37c0-.56.04-1.23,1-1.23.78,0,1.04.56,1.04,1.23v17.65c0,4.94-4.27,9.36-11.52,9.36s-11.44-4.42-11.44-9.36v-17.65c0-.56.3-1.23,1.08-1.23.85,0,1.15.41,1.15,1.23v17.65c0,3.97,2.9,7.32,9.21,7.32,5.91,0,9.47-3.34,9.47-7.32v-17.65Z"/>
      <path class="cls-1" d="M646.72,670.18c-9.1,0-13.24-5.79-13.24-11.16v-17.65c0-1.73,1.24-3.03,2.88-3.03,1.82,0,2.95,1.16,2.95,3.03v17.65c0,3.46,2.77,5.52,7.41,5.52s7.67-2.27,7.67-5.52v-17.65c0-2.88,2.34-3.03,2.8-3.03,1.67,0,2.84,1.25,2.84,3.03v17.65c0,5.55-4.58,11.16-13.32,11.16Z"/>
    </g>
    <g>
      <path class="cls-1" d="M692.33,665.96s.85,0,.85,1-.85,1.04-.85,1.04h-15.53c-.45,0-.74-.3-.74-.74v-26.26s0-.86,1.11-.86,1.11.86,1.11.86v24.96h14.04Z"/>
      <path class="cls-1" d="M692.33,669.81h-15.53c-1.45,0-2.54-1.09-2.54-2.54v-26.26c0-1.29,1.02-2.66,2.91-2.66s2.91,1.37,2.91,2.66v23.16h12.24c1.29,0,2.65.98,2.65,2.8s-1.37,2.84-2.65,2.84Z"/>
    </g>
    <g>
      <path class="cls-1" d="M720.08,641.81c-5.91,0-11.67,3.27-11.67,12.85,0,8.02,5.39,11.67,11.85,11.67,3.97,0,6.98-2.27,8.43-3.9.26-.26.37-.37.78-.37.56,0,.89.41.89.85,0,.48-.45,1.08-.67,1.34-1.75,2.01-5.16,4.12-9.58,4.12-7.62,0-13.93-4.68-13.93-13.71,0-10.48,6.91-14.9,13.89-14.9,5.39,0,9.18,2.86,9.18,6.76,0,1.67-.78,3.01-1.63,3.01-.56,0-.93-.3-.93-.78,0-.41.37-.52.37-1.93.11-3.12-3.01-5.01-6.98-5.01Z"/>
      <path class="cls-1" d="M720.12,670.18c-9.41,0-15.73-6.23-15.73-15.51,0-11.53,7.88-16.7,15.69-16.7,6.36,0,10.98,3.6,10.98,8.56,0,2.74-1.48,4.81-3.44,4.81-1.56,0-2.73-1.11-2.73-2.58,0-.51.16-.88.25-1.09.06-.14.12-.29.12-.84.02-.72-.19-1.27-.65-1.75-.88-.91-2.58-1.46-4.53-1.46-3.68,0-9.86,1.44-9.86,11.05,0,6.18,3.76,9.86,10.05,9.86,3.07,0,5.67-1.7,7.08-3.29.41-.42.97-.98,2.13-.98,1.51,0,2.69,1.17,2.69,2.65,0,1.01-.6,1.92-1.1,2.51-2.01,2.31-5.93,4.76-10.95,4.76ZM728.6,662.69h0Z"/>
    </g>
    <g>
      <path class="cls-1" d="M765.28,665.96s.86.07.86,1.04-.86,1-.86,1h-17.05c-.45,0-.74-.3-.74-.74v-26.38c0-.44.3-.74.74-.74h15.97s.85.07.85,1-.85,1.08-.85,1.08h-14.53v13.78h12.33s.85.07.85,1-.85,1.04-.85,1.04h-12.33v7.91h15.6Z"/>
      <path class="cls-1" d="M765.36,669.81h-17.13c-1.45,0-2.54-1.09-2.54-2.54v-26.38c0-1.45,1.09-2.54,2.54-2.54h16.13c1.24.12,2.5,1.11,2.5,2.8s-1.22,2.71-2.42,2.86h-.23s-12.72.01-12.72.01v10.18h10.69c1.24.12,2.5,1.11,2.5,2.8s-1.26,2.73-2.5,2.83h-.16s-10.53,0-10.53,0v4.31h13.95c1.24.11,2.5,1.12,2.5,2.84s-1.26,2.69-2.5,2.8h-.08Z"/>
    </g>
  </g>
</svg>