<svg version="1.2" xmlns="http://www.w3.org/2000/svg" viewBox="0 0 812 466" width="812" height="466">
	<title>DULCINELLA-02-svg</title>
	<style>
		.s0 { fill: #996952 } 
	</style>
	<g>
		<path fill-rule="evenodd" class="s0" d="m392.1 396.7q0.4 0.7 0.4 1.6 0 1-0.4 1.6-0.4 0.6-1 0.9-0.6 0.3-1.2 0.3h-7.1v24.5q0 0.8-0.5 1.4-0.4 0.6-1 0.9-0.6 0.3-1.4 0.3-0.9 0-1.4-0.3-0.7-0.3-1-0.9-0.5-0.6-0.5-1.4v-24.5h-7.1q-0.7 0-1.3-0.3c-0.5-0.3-1.3-0.9-1.3-2.5q0-0.9 0.3-1.5 0.3-0.5 0.9-0.9 0.5-0.3 1.1-0.4h0.3 20.3q0.5 0.1 1 0.4 0.5 0.3 0.9 0.8zm-33.8 2.4q2.4 2 3.7 5.1c0.9 2 1.3 4.5 1.3 7.4q0 3.2-0.8 6.2-0.8 3.1-2.8 5.4-2 2.3-5.1 3.7c-2.1 0.9-4.7 1.3-7.6 1.3h-10c-1.5 0-2.5-1-2.5-2.5v-27.7c0-1.5 1-2.5 2.5-2.5h9c2.3 0 4.6 0.3 6.7 0.8q3.2 0.9 5.6 2.8zm-1.3 17q0.6-2.1 0.6-4.6 0-3.1-0.9-5.1c-0.5-1.3-1.2-2.3-2.2-3.1q-1.5-1.2-3.6-1.7c-1.5-0.3-3.1-0.5-4.9-0.5h-5.7v21.5h6.7q3.1 0 5.2-0.9 1.9-0.8 3.1-2.2 1.2-1.4 1.7-3.4zm-67.5-20.1q0.5 0.3 0.8 0.8 0.4 0.6 0.4 1.5 0 0.9-0.4 1.5-0.3 0.5-0.8 0.9-0.6 0.4-1.4 0.4h-13.5v11.4h10.4q0.8 0 1.4 0.5 0.5 0.3 0.8 0.8 0.5 0.7 0.5 1.5 0 0.9-0.5 1.5-0.3 0.5-0.7 0.8-0.6 0.4-1.2 0.5h-0.3-10.4v7.5c0 0.9-0.4 1.5-0.7 1.8-0.6 0.7-1.6 0.8-2.3 0.8q-1.3 0-2.1-0.7c-0.3-0.4-0.7-1-0.7-1.9v-27.6c0-1.5 1-2.5 2.5-2.5h17.1q0.6 0.1 1.1 0.5zm33.3-0.5c1.4 0 2 0.6 2.3 1.1q0.4 0.7 0.4 1.5v27c0 0.9-0.1 1.4-0.4 1.9-0.4 0.7-1.1 1.2-2.1 1.2-1 0-1.6-0.4-1.9-0.8q-0.2-0.3-0.5-0.6l-16.7-20.3v19.1c0 1.3-1 2.6-3 2.6q-1.2 0-1.9-0.7-0.7-0.7-0.7-1.9v-27.1q0-0.8 0.2-1.5c0.4-1.2 1.9-1.9 3.4-1.3 0.4 0.2 0.9 0.5 1.4 1.1l16.6 20.4v-19.1q0-0.8 0.4-1.5c0.7-1.1 2-1.1 2.4-1.1zm213.8 16.4q0.7 2 0.7 4.8 0 2.6-0.9 4.7-0.8 2.2-2.3 3.8-1.6 1.6-3.7 2.5-2 0.8-4.5 0.8-2 0-3.8-0.6-1.8-0.6-3.1-1.7-1.4-1.1-2.2-2.7-0.9-1.6-0.9-3.4 0-1.5 0.5-2.5c0.5-1 1.4-1.6 2.4-1.6 2.3 0 3.1 1.4 3.1 2.6q0 0.3-0.1 0.9c0 0.1-0.1 0.3-0.1 0.8 0 0.8 0.3 1.4 1 1.9q1.2 0.8 3.2 0.8 1.3 0.1 2.3-0.4 1-0.4 1.7-1.2 0.8-0.7 1.2-1.9 0.4-1.2 0.4-2.7 0-1.8-0.4-2.9-0.3-0.9-0.8-1.5-0.6-0.5-1.3-0.7c-1.3-0.4-3-0.4-4.2 0q-1.1 0.3-1.9 0.6-0.8 0.4-1.2 0.7l-0.8 0.5c-1.3 0.8-3 0.6-3.7-0.5-0.5-0.8-0.4-1.6-0.4-2.1l1.3-11.2c0-1.3 1-2.3 2.5-2.3h9.4c0.7 0 1.1 0 1.2 0q0.4-0.1 0.7-0.1c1.1-0.6 2.6-0.3 3.2 0.8q0.3 0.7 0.3 1.5c0 1.2-0.7 3.3-5.2 3.3h-6.9l-0.4 3.6c2.4-0.8 5.7-0.8 8.1 0q2 0.6 3.4 1.9c1 1 1.7 2.1 2.2 3.5zm-30.9-10q1.8 2.1 2.7 4.9 1 2.8 1 6c0 2.2-0.4 4.2-1 6.1-0.6 1.8-1.6 3.5-2.7 4.9q-1.8 2.2-4.3 3.4-2.5 1.2-5.5 1.2-3 0-5.5-1.2c-1.6-0.8-3-1.9-4.2-3.4q-1.7-2.1-2.6-4.9c-0.6-1.9-0.9-3.9-0.9-6 0-2.2 0.3-4.2 0.9-6q0.9-2.9 2.6-5c1.2-1.4 2.6-2.6 4.3-3.4 3.3-1.7 7.6-1.7 11 0q2.5 1.2 4.2 3.4zm-2.2 10.9q0-2.2-0.6-4.1-0.5-1.8-1.5-3.2c-0.7-0.8-1.5-1.5-2.4-2q-1.3-0.7-3-0.7-1.7 0-3 0.7-1.4 0.7-2.4 2-1 1.3-1.6 3.2-0.5 1.9-0.5 4.2 0 2.3 0.5 4.1 0.6 1.9 1.6 3.2 1 1.3 2.3 2 1.3 0.7 3 0.7c1.1 0 2.1-0.3 3-0.8q1.4-0.7 2.4-1.9 1-1.4 1.6-3.2c0.4-1.3 0.6-2.7 0.6-4.2zm-31.1-10.9q1.7 2.1 2.7 4.9 0.9 2.8 0.9 6c0 2.2-0.3 4.2-1 6.1-0.6 1.9-1.5 3.5-2.7 4.9q-1.7 2.2-4.2 3.4-2.5 1.2-5.5 1.2-3 0-5.5-1.2c-1.7-0.8-3.1-1.9-4.2-3.4q-1.7-2-2.7-4.9c-0.6-1.9-0.9-3.9-0.9-6 0-2.1 0.3-4.2 0.9-6q1-2.9 2.7-5c1.2-1.4 2.6-2.6 4.2-3.4 3.3-1.7 7.7-1.7 11 0q2.5 1.2 4.3 3.4zm-2.2 10.9q0-2.2-0.6-4.1-0.6-1.8-1.6-3.2c-0.7-0.8-1.4-1.5-2.4-2q-1.3-0.7-3-0.7-1.7 0-3 0.7-1.3 0.8-2.3 2-1 1.4-1.6 3.2-0.6 1.9-0.6 4.2 0 2.3 0.6 4.1 0.5 1.9 1.5 3.2 1 1.3 2.4 2 1.3 0.7 3 0.7c1.1 0 2-0.3 3-0.7q1.4-0.8 2.4-2 1-1.3 1.6-3.2c0.4-1.3 0.6-2.7 0.6-4.2zm-28.2 9q0 0 0 0-0.1 0-0.1 0zm0 0c1 0 1.8 0.5 2.1 1.4q0.2 0.6 0.2 1.2 0 0.8-0.5 1.5-0.4 0.7-1.1 1.2-0.7 0.5-1.7 0.8-1 0.3-2.2 0.3-0.8 0-2.2-0.1-1.2-0.2-2.5-0.3l-2.7-0.3q-1.2-0.1-2.1-0.1-2.1 0-3.3 0.3c-1.5 0.5-2 0.5-2.4 0.5-1.4 0-2.5-1-2.5-2.4q0-0.6 0.2-1.1c0.1-0.3 0.3-0.7 0.7-1.2 0.8-1.2 1.9-2.4 3.1-3.4q1.7-1.5 3.5-2.8 1.8-1.3 3.5-2.6 1.6-1.2 2.8-2.5 1.2-1.3 1.9-2.8 0.7-1.4 0.7-3.2 0-1-0.3-1.6-0.4-0.6-0.9-1-0.6-0.4-1.5-0.6c-1.4-0.3-3.2-0.4-4.5 0.1q-0.8 0.3-1.4 0.8-0.6 0.5-0.9 1.1-0.3 0.7-0.3 1.6c0 0.5 0 0.6 0 0.6q0.1 0.1 0.1 0.2 0 0 0.1 0c0.3 0.3 0.6 0.9 0.6 1.7 0 0.9-0.5 1.7-1.3 2.1q-0.7 0.4-1.7 0.4-1.4 0-2.5-1.5-1.1-1.2-1.1-3.6 0-2 0.9-3.7 0.8-1.7 2.3-3 1.5-1.2 3.4-1.9c2.5-0.9 5.5-0.8 8-0.1q2 0.5 3.5 1.7 1.5 1.1 2.4 2.9 0.9 1.7 0.9 4c0 1.6-0.3 3.1-0.9 4.4q-0.8 2-2.2 3.6-1.3 1.6-3 3-1.6 1.4-3.3 2.7-1.3 1-2.5 1.9 0.3 0.1 0.6 0.1 1.4 0.1 2.8 0.3 1.3 0.1 2.5 0.2c1.6 0.2 2.4 0.1 2.5 0.1q0.4-0.2 0.4-0.2 0.2-0.1 0.3-0.2 0.7-0.5 1.5-0.5zm-14.2-14.4q0 0 0 0 0 0 0 0zm-28 15.3c0.7 0.7 1 1.6 1 2.5 0 0.9-0.3 1.7-0.9 2.4-0.7 0.8-1.6 1.2-2.6 1.2-1.4 0-2.2-0.7-2.7-1.2q-0.8-1-0.9-2.4c0-0.9 0.4-1.8 1.1-2.5 1.3-1.4 3.6-1.4 5 0z"/>
		<path fill-rule="evenodd" class="s0" d="m200.8 82.1q0.2 0.9 0 1.8-0.2 0.7-0.5 1.1c-0.3 0.7-0.8 1.5-1.4 2.3q-0.8 1.2-2.1 2.3-1.3 1.2-2.9 2.1-1.6 1-3.6 1.5-2.9 0.9-5.7 0.9-0.5 0-0.9-0.1c-2.3-0.1-4.4-0.6-6.3-1.6-1.9-0.9-3.6-2.3-5.1-4.1q-2.2-2.7-3.4-6.6-1.3-4.6-0.9-8.3c0.3-2.5 1.1-4.8 2.2-6.7 1.1-1.9 2.6-3.5 4.4-4.7 1.8-1.3 3.7-2.2 5.8-2.8q2.4-0.7 4.6-0.7 2.3 0 4.1 0.7 2 0.8 3.4 2.1 1.4 1.5 1.9 3.4 0.5 1.8 0.2 3.3c-0.4 1.7-1.4 2.3-2.1 2.5-1.8 0.5-2.9-0.5-3.2-1.7q-0.2-0.4-0.1-0.9v-0.4q0-0.1 0-0.2 0-0.3-0.2-0.7-0.2-0.9-0.7-1.4-0.6-0.6-1.5-0.9-0.9-0.3-2.2-0.2-1.3 0-2.7 0.4-2.2 0.6-4 1.9-1.8 1.1-2.9 3-1.1 1.8-1.4 4.4c-0.2 1.8 0.1 3.9 0.8 6.3q0.9 2.9 2.4 4.7 1.5 1.8 3.3 2.7 1.9 0.9 4.1 1 2.3 0.1 4.7-0.6 1.4-0.4 2.5-1.1 1.1-0.7 2-1.6 0.9-0.9 1.5-1.7 0.6-0.9 0.9-1.6c0.2-0.4 0.4-0.6 0.5-0.8q0.5-0.5 1.3-0.7c0.7-0.2 1.4-0.1 2 0.2 0.6 0.4 1 0.9 1.2 1.5zm43.9-4.8q0.1 0.5 0 1.1-0.3 1.4-2.2 1.8-1.1 0.3-2-0.1-0.8-0.4-1.2-1l-3.4-4.6-17.1 3.7-1.2 5.6c-0.1 0.5-0.3 0.9-0.5 1.3-0.5 0.7-1.4 0.9-2 1.1q-0.4 0-0.7 0c-0.7 0-1.2-0.2-1.5-0.4-0.5-0.4-0.8-1-1-1.6q-0.1-0.5 0-1l0.1-0.2 6.9-31.1c0.1-0.7 0.3-1.1 0.5-1.5q0.6-1 2-1.3 1.4-0.3 2.3 0.3 0.7 0.4 1.2 1.1l19.4 25.9 0.1 0.2q0.2 0.3 0.3 0.7zm-24.6-5.1c0 0 12.1-2.6 12.1-2.6l-9-12.2zm57.3-13q1.5 1.6 1.9 4.3 0.4 2.4-0.3 4.6-0.7 2.2-2.3 3.9-1.6 1.7-3.9 2.8-2.2 1.1-5 1.5-1.9 0.3-3.7 0.3-0.6 0-1.2 0-2.3-0.2-4.2-1-2-0.9-3.3-2.5-1.3-1.6-1.6-4c-0.3-1.6-0.1-2.9 0.5-3.9q1-1.4 2.4-1.7c1.8-0.2 2.8 0.8 2.9 1.9q0.2 0.7-0.2 1.4-0.1 0.1-0.1 0.2-0.1 0.3-0.1 0.6c0 0.1-0.1 0.3 0 0.7 0.2 1.2 0.8 1.9 2 2.3q2.1 0.8 5.7 0.3 1.8-0.3 3.2-1 1.4-0.6 2.4-1.4 0.8-0.8 1.2-1.8 0.4-0.9 0.2-2-0.2-1.1-0.8-1.7-0.7-0.7-1.8-1.1-1.2-0.5-2.8-0.7-1.7-0.3-3.6-0.6-1.9-0.3-3.8-0.6-2-0.3-3.8-1.1-1.8-0.7-3.2-2.2-1.3-1.6-1.8-4.2-0.3-2 0.3-3.9 0.5-2 1.9-3.5 1.4-1.4 3.5-2.5 2.1-0.9 4.8-1.4 2.5-0.4 4.5-0.1 2 0.3 3.5 1.1 1.7 0.9 2.6 2.2 1 1.3 1.2 2.9 0.3 2-0.5 3.5c-0.8 1.3-1.8 1.7-2.5 1.8q-0.8 0.2-1.5-0.1c-0.7-0.3-1.2-1-1.3-1.8q-0.1-0.7 0.1-1.3 0.1-0.3 0.2-0.6 0.1-0.2 0.1-0.4c0 0 0 0 0-0.2 0-0.2-0.1-0.7-1.2-1.3q-1.5-0.7-4.3-0.2-3.3 0.5-5 1.8c-0.9 0.7-1.2 1.5-1 2.6q0.2 1.1 0.6 1.6 0.4 0.6 1.2 0.9 1 0.5 2.5 0.8 1.7 0.3 3.9 0.6 2.1 0.3 4.1 0.6 2.2 0.4 4 1.2 2 0.8 3.4 2.4zm46.4 6.5l0.1 0.1q0.1 0.4 0.2 0.8 0 0.5-0.2 1.1-0.4 1.3-2.3 1.5-1.2 0.2-2-0.3-0.7-0.5-1.1-1.1l-2.9-5-17.3 1.8-1.8 5.6q-0.3 0.7-0.7 1.1c-0.6 0.7-1.5 0.8-2.1 0.9q-0.2 0-0.4 0c-0.8 0-1.4-0.3-1.7-0.6-0.5-0.5-0.8-1-0.8-1.7q-0.1-0.5 0.1-1v-0.1l10.2-30.3c0.3-0.6 0.5-1 0.8-1.4q0.6-0.9 2.1-1.1 1.3-0.1 2.2 0.6 0.6 0.5 1 1.2l16.6 27.8zm-23.7-6.7q0 0 0 0zm0 0c0-0.1 12.4-1.4 12.4-1.4l-7.6-13zm81.2-18.4c1 2.2 1.5 4.8 1.6 7.8 0.1 2.3-0.1 4.6-0.6 6.7-0.5 2.2-1.4 4.1-2.8 5.8-1.3 1.7-3.1 3-5.3 4.1-2.1 1-4.8 1.5-8 1.6l-10.7 0.4q-0.1 0-0.1 0c-0.9 0-1.4-0.3-1.7-0.6-0.3-0.3-0.7-0.8-0.7-1.7l-1.1-29.8c0-0.9 0.4-1.4 0.7-1.7 0.3-0.4 0.8-0.8 1.7-0.8l9.6-0.3c2.6-0.1 5 0.1 7.2 0.6 2.3 0.5 4.3 1.4 6 2.7q2.6 2 4.2 5.2zm-4 8c-0.1-2.2-0.5-4.1-1.2-5.5q-1-2.1-2.6-3.4c-1.1-0.8-2.4-1.4-4-1.7q-2.4-0.5-5.4-0.4l-6.3 0.2 0.8 23.6 7.5-0.3q3.4-0.1 5.6-1.1 2.1-1 3.3-2.6 1.3-1.7 1.8-3.8 0.6-2.3 0.5-5zm42.5 13.3q0.4 0.7 0.4 1.6-0.1 0.9-0.5 1.5-0.3 0.4-0.8 0.7-0.6 0.5-1.3 0.5l-19.3-0.2c-1.4 0-2.4-1-2.4-2.5l0.3-29.7c0-1.4 1-2.4 2.4-2.4h0.1l18 0.2c0.5 0 0.9 0.1 1.3 0.4q0.5 0.3 0.8 0.8 0.4 0.7 0.4 1.5 0 0.9-0.4 1.5-0.3 0.5-0.8 0.8-0.5 0.4-1.1 0.5h-0.2l-14.9-0.1-0.1 12.3 12.3 0.1c0.5 0 1 0.2 1.4 0.5q0.5 0.3 0.8 0.8 0.4 0.6 0.4 1.5 0 0.8-0.4 1.5-0.4 0.5-0.8 0.8c-0.5 0.3-0.9 0.5-1.4 0.4l-12.3-0.1-0.1 5.7 16 0.2c0.5 0 1 0.1 1.4 0.4q0.5 0.3 0.8 0.8zm62.3-17.7q1.1 3.4 0.7 8-0.2 3.4-1.3 6.5-1.1 3.2-3.4 5.5c-1.5 1.5-3.4 2.7-5.7 3.4q-2.6 0.9-6 0.9-1 0-2.1-0.1l-10.8-0.8c-0.9-0.1-1.4-0.5-1.7-0.8-0.3-0.3-0.6-0.9-0.5-1.8l2.2-29.6c0.1-1.5 1.2-2.4 2.7-2.3l9.6 0.7c2.5 0.2 4.9 0.7 7 1.4q3.4 1.2 5.7 3.4 2.4 2.3 3.6 5.6zm-5.4 1.9q-0.8-2.2-2.3-3.6-1.5-1.4-3.7-2.2-2.4-0.7-5.4-1l-6.3-0.4-1.8 23.5 7.5 0.5q3.4 0.3 5.7-0.5 2.2-0.7 3.6-2.2 1.4-1.5 2.2-3.6 0.8-2.2 1-4.9c0.1-2.2 0-4.1-0.5-5.6zm47.6-6.1c1.3 0.2 1.9 1 2.1 1.4q0.4 0.9 0.2 1.9l-2.5 19.8q-0.3 2.4-1.6 4.5-1.3 2-3.4 3.5-2.1 1.4-4.9 2-1.7 0.3-3.5 0.3-1.3 0-2.6-0.1-3.5-0.5-6-1.8-2.5-1.3-4.2-3.2-1.6-1.9-2.3-4.2-0.7-2.3-0.4-4.7l2.6-19.8q0.1-0.9 0.7-1.6c0.3-0.4 1.1-1.1 2.4-1 1.2 0.2 1.8 0.8 2.1 1.2q0.6 0.9 0.4 2.2l-2.5 19.7q-0.2 1.3 0.2 2.6c0.2 0.8 0.6 1.6 1.2 2.2q0.9 1.1 2.4 1.8 1.7 0.8 4.1 1.1 2.2 0.3 4 0 1.7-0.4 3-1.2 1.2-0.7 1.9-1.8 0.7-1.1 0.9-2.4l2.5-19.7q0.1-0.8 0.4-1.4c0.2-0.5 0.9-1.5 2.7-1.3zm33.8 36.6q0.3 0.7 0.1 1.5-0.1 0.9-0.6 1.5c-0.3 0.4-0.7 0.6-1.1 0.7q-0.4 0.1-0.8 0.2-0.3-0.1-0.6-0.1l-17.1-3.1c-1.4-0.3-2.2-1.4-2-2.8l5.3-29.2q0.1-0.7 0.7-1.3 0.4-0.4 1-0.6 0.7-0.3 1.5-0.1 0.9 0.1 1.5 0.6 0.5 0.4 0.7 1 0.3 0.7 0.2 1.4l-4.7 26.1 14 2.6q0.6 0.1 1.1 0.5 0.6 0.4 0.8 1.1zm41.4-16.7q0.6 2 0.1 4-0.4 1.8-1.5 2.9c-1.2 1.2-2.3 1.3-3 1.1q-1.1-0.2-1.6-1c-0.5-0.5-0.6-1.2-0.4-2q0.1-0.5 0.4-0.9l0.2-0.2q0-0.2 0.1-0.3 0.1-0.2 0.2-0.6v-0.1q0.2-0.8 0-1.6-0.2-0.7-0.8-1.4-0.7-0.7-1.8-1.3-1.2-0.7-2.6-1-2.2-0.5-4.4-0.3-2.1 0.1-4 1.2-1.9 1-3.4 3.2-1.5 2.2-2.4 5.8c-0.4 2-0.5 3.8-0.2 5.3q0.4 2.3 1.6 4 1.2 1.8 3.1 2.9 1.9 1.2 4.3 1.7 1.5 0.4 2.8 0.3 1.3-0.1 2.5-0.4 1.2-0.3 2.1-0.8 0.9-0.5 1.6-0.9c0.4-0.3 0.6-0.4 0.9-0.5q0.6-0.2 1.3 0c0.8 0.2 1.4 0.6 1.7 1.2q0.5 0.9 0.3 1.9-0.2 0.9-0.9 1.6c-0.3 0.3-0.6 0.5-0.9 0.7-0.6 0.4-1.4 0.9-2.3 1.3q-1.4 0.7-3.1 1-1.6 0.4-3.5 0.4-0.1 0-0.1 0-1.8 0-3.8-0.4c-2.2-0.6-4.3-1.4-6.2-2.6-1.8-1.2-3.4-2.7-4.6-4.4-1.2-1.8-2.1-3.8-2.5-6.1-0.4-2.3-0.3-4.8 0.4-7.5q1.1-4.6 3.3-7.7 2.2-3 5.1-4.7 2.9-1.6 6.2-2c2.1-0.2 4.3-0.1 6.4 0.4q2.4 0.6 4.3 1.7 2 1.1 3.3 2.7 1.3 1.6 1.8 3.4zm38.5 7.3q0.2 0.7 0 1.6-0.3 0.8-0.8 1.3-0.5 0.4-1 0.5-0.6 0.2-1.2 0.2l-0.3-0.1-14.1-4.3-3.6 11.8 11.8 3.6q0.7 0.2 1.1 0.8 0.4 0.4 0.6 1 0.2 0.7-0.1 1.5-0.2 0.9-0.8 1.4-0.4 0.3-1 0.5-0.7 0.3-1.4 0l-11.8-3.5-1.7 5.4 15.3 4.7q0.7 0.2 1.2 0.8 0.3 0.5 0.5 1 0.2 0.7-0.1 1.6-0.2 0.9-0.8 1.3-0.5 0.4-1 0.5-0.3 0.2-0.7 0.2-0.4 0-0.7-0.1l-18.4-5.7c-1.4-0.4-2-1.6-1.6-3l8.7-28.4c0.2-0.9 0.7-1.3 1.1-1.5 0.4-0.2 1.1-0.4 1.9-0.2l17.2 5.3c0.5 0.1 0.9 0.4 1.2 0.8q0.4 0.5 0.5 1z"/>
	</g>
	<g>
		<path class="s0" d="m237.9 320.4c-9.5 0-8.7-13.8-8.7-22v-72.5c0-9.5-7.8-17.2-17.1-17.2h-14.8c-1.7 0-3.1 1.3-3.1 3 0.1 1.5 1.2 2.6 2.8 2.7 1.3 0.2 2.4 0.5 3.1 1.1 3.1 2.3 3.1 9.4 3.1 21.2v45.8c0 12.7-1.1 22.2-2.9 28.4-3.5 12.1-14.6 11.7-16.4 0.4-0.6-3.8-0.7-9-0.7-15.8v-69.6c0-10.4-8.9-17.2-17.2-17.2h-16c-1.7 0-3 1.3-3 2.9 0 1.5 1.2 2.7 2.8 2.8 1.3 0 3 0.4 4 1.6 2.7 3.2 2.9 11 2.9 23.5v48.1c0 53.1 42.5 45.1 49.2 27 4 11.5 15.6 11.5 20.5 11.5h11.2c2.1 0 3-1.6 3-2.9 0-1.4-1.2-2.8-2.7-2.8z"/>
		<path class="s0" d="m283.4 320.4c-8.5-0.7-7.8-12-7.8-23.3 0 0-0.1-120.8-0.1-125.6 0-9.7-8-17.2-17.2-17.2h-16.6c-1.7 0-3.1 1.3-3.1 2.9 0 1.5 1.2 2.7 2.8 2.8 8.4 0.7 7.8 12 7.8 23.4v125.5c0 9.7 8 17.2 17.2 17.2h16.7c1.7 0 3.1-1.3 3.1-2.8 0-1.5-1.2-2.8-2.8-2.9z"/>
		<path class="s0" d="m416.6 320.4c-8.5-0.7-7.9-12-7.9-23.3 0 0 0-66.4 0-71.2 0-9.7-8-17.2-17.2-17.2h-16.7c-1.7 0-3.1 1.3-3.1 2.9 0 1.5 1.3 2.7 2.9 2.8 8.4 0.7 7.8 12 7.8 23.4v71.1c0 9.7 8 17.2 17.2 17.2h16.7c1.7 0 3.1-1.3 3.1-2.8 0-1.5-1.2-2.8-2.8-2.9z"/>
		<path class="s0" d="m394.5 194.3c8.1 0 14.7-6.8 14.7-15.1 0-10.1-6.4-16.1-14.7-16.1-10.4 0-14.5 9.3-14.5 16.1 0 7.9 5.6 15.1 14.5 15.1z"/>
		<path class="s0" d="m70.8 154.3c-20.7 0-33.6 10.3-39.1 21.3-9 17.8 0.1 43.4 24.1 43.4 17.5 0 29.7-8.6 29.7-23.8 0-8.7-5.4-16-11.8-17.6-1.8-0.4-4-0.7-5 0.7-0.5 0.8-0.5 1.7-0.1 2.4 5.9 10.9-2.3 16.8-8.9 16.8-10.8 0-14.9-13.4-13-22.1 3.7-17.1 31-20.6 44.3-3.3 7.6 9.8 14.9 29.6 14.9 71 0 19.2 2.8 74.3-28.3 76.8-3.7 0.3-6.8-2.4-6.8-5.8v-85.5c0-1.8-1.4-3.1-3.5-2.7-5.9 1.3-13.6 1.7-21.7 0-2.7-0.6-3.5 1.7-3.5 2.6v64.4c0 9.1-0.4 16.1-1.6 20.8-1.8 7.2-6.1 6.7-7.7 6.7-1.7 0.1-3.1 1.3-3.1 2.8 0 1.4 0.9 2.9 3.1 2.9h37.8c9.2 0 16.1-0.8 22.2-2.5 12.1-3.4 44.5-18.7 44.5-81 0-64.6-32.5-88.3-66.5-88.3z"/>
		<path class="s0" d="m509.8 320.4c-8.4-0.7-7.8-12-7.8-23.3 0 0 0-27.5-0.1-48.3 0-9.4 0.9-45.9-30.4-41.9-6.4 0.8-13.4 3.8-17.8 12-2.8-6.1-8.9-10.2-15.7-10.2h-16.6c-1.8 0-3.1 1.3-3.1 2.9 0 1.5 1.2 2.7 2.8 2.8 8.4 0.7 7.8 12 7.8 23.4v71.1c0 9.7 8 17.2 17.2 17.2h16.7c1.7 0 3.1-1.3 3.1-2.8 0-1.5-1.2-2.8-2.8-2.9-8.5-0.7-7.9-12-7.9-23.3 0 0 0-26.4 0-47 0.2-10.7 1.2-19.4 3.2-25.4 2.6-7.8 6.7-9.9 10.2-9.1 6.3 1.5 6.7 9.3 7 19.6 0 0.7 0 73.7 0 73.7 0 9.7 8.1 17.2 17.2 17.2h16.7c1.7 0 3.1-1.3 3.1-2.9 0-1.4-1.2-2.7-2.8-2.8z"/>
		<path class="s0" d="m642.6 320.4c-8.4-0.7-7.8-12-7.8-23.3 0 0 0-120.8 0-125.6 0-9.7-8-17.2-17.2-17.2h-16.7c-1.7 0-3.1 1.3-3.1 2.9 0 1.5 1.2 2.7 2.8 2.8 8.5 0.7 7.9 12 7.9 23.4v125.5c0 9.7 8 17.2 17.2 17.2h16.7c1.7 0 3.1-1.3 3.1-2.8 0-1.5-1.3-2.8-2.9-2.9z"/>
		<path class="s0" d="m689 320.4c-8.4-0.7-7.8-12-7.8-23.3 0 0 0-120.8 0-125.6 0-9.7-8-17.2-17.2-17.2h-16.7c-1.7 0-3.1 1.3-3.1 2.9 0 1.5 1.2 2.7 2.8 2.8 8.5 0.7 7.9 12 7.9 23.4v125.5c0 9.7 8 17.2 17.2 17.2h16.7c1.7 0 3.1-1.3 3.1-2.8 0-1.5-1.3-2.8-2.9-2.9z"/>
		<path class="s0" d="m360.2 290c-1.8-0.5-3.4 1-3.5 2.7-1.4 17.6-7.5 26.4-16.5 26.4-4.5 0-12-1.7-15.6-15.8-2.8-11.1-3.2-27.8-3.2-43.7 0-39.6 7.4-45.5 12.5-46.9 6-1.7 12.6 2.5 12.4 11.9-0.4 10.9-9.3 8.7-10.4 8.6-1-0.1-2.5 0.7-2.4 2.6 0.1 1.8 2.9 13.6 13.9 13.6 23.8 0 20.3-42.8-10.1-42.8-13.1 0-23.8 6.5-31.3 18.2-7.4 11.7-11.4 27.9-11.4 46.9 0 60.4 40.6 59 50.5 54.7 8-3.5 15.3-10.8 17.3-33.2 0.1-0.9-0.3-2.7-2.2-3.2z"/>
		<path fill-rule="evenodd" class="s0" d="m587 290c2 0.5 2.3 2.3 2.2 3.2-1.9 22.3-9.3 29.7-17.2 33.2-9.9 4.3-51.8 5.7-51.8-54.7 0-8.2 0.6-47.3 24.4-60.9 10.8-6.2 22.9-5.4 31.9-1 19.7 9.7 17 35.8 3.8 46.5-6.5 5.3-13.1 7.8-18.9 10.1-7.6 2.9-14.4 5-14 13.7 0.4 8.8 1.2 16.9 2.8 23.2 3.6 14.1 12.3 15.8 16.9 15.8 9 0 15.1-8.8 16.4-26.4 0.1-1.7 1.8-3.2 3.6-2.7zm-38.7-58.8c-0.9 7.8-1.3 18.5-1.3 34.6 1.5-1 6.7-4 7.7-4.6 9.4-5.6 10.7-19.5 11-24.5 0.6-9.1-0.5-19.2-4-22.4-2-1.9-5.7-1.9-7.9 0.2-2.7 2.4-4.5 7.9-5.5 16.7z"/>
		<path fill-rule="evenodd" class="s0" d="m777.7 323.2c0 1.3-0.9 2.9-3.1 2.9h-11.2c-4.9 0-16.4 0-20.5-11.5-1.3 3.5-7.6 15.3-25.2 13.3-6.3-0.7-20.4-6.4-19.9-31.4 0.5-24.6 20.5-32.2 20.5-32.2 10.5-5.4 21.9-9.1 21.9-26.1 0-11.9-0.7-25.4-10.7-25.4-6.8 0-10.9 6-10.5 12.3 0.6 10.3 9.2 8.2 10.3 8.1 1-0.1 2.5 0.6 2.4 2.6-0.1 1.8-2.9 13.6-13.9 13.6-12.4 0-17.4-11.6-15-22.8 2.3-10.8 12.5-20.1 30.8-20.1 28.6 0 32.6 20.5 32.6 35.7 0 2.2 0.1 56.2 0.1 56.2 0 8.2-0.9 22 8.6 22 1.6 0 2.8 1.4 2.8 2.8zm-37.5-65c-2.2 4.5-17.9 8.2-17.9 34 0 8 0.8 13.2 1.8 16.6 2.7 9.4 11.9 9.3 14.4 1.4 1.6-5.4 1.7-14.6 1.7-27.7 0 0 0-24.3 0-24.3z"/>
	</g>
</svg>