<?xml version="1.0" encoding="UTF-8"?>
<svg id="Layer_1" data-name="Layer 1" xmlns="http://www.w3.org/2000/svg" viewBox="0 0 1080 1080">
  <defs>
    <style>
      .cls-1 {
        fill: #996952;
      }
    </style>
  </defs>
  <g>
    <path class="cls-1" d="M528.22,705.92h-.02c-.32-.2-.66-.32-1.02-.38l-20.32-.02-.24.02c-.4.06-.78.18-1.11.38-.37.23-.68.53-.9.9-.24.41-.36.9-.36,1.51,0,1.55.87,2.21,1.34,2.45.38.21.81.32,1.28.32h7.13v24.48c0,.53.16,1.03.46,1.45.24.37.58.66.99.87.4.2.87.3,1.44.3s1.04-.1,1.43-.3c.42-.21.75-.5.99-.87.3-.42.46-.92.46-1.45v-24.48h7.13c.43,0,.83-.1,1.2-.3.41-.19.75-.5,1.01-.9.27-.43.41-.94.41-1.57s-.15-1.18-.45-1.61c-.23-.33-.51-.59-.85-.8ZM495.29,709.08h0c-1.58-1.28-3.47-2.21-5.63-2.77-2.05-.53-4.31-.8-6.71-.8h-8.97c-1.47,0-2.5,1.03-2.5,2.5v27.69c0,1.47,1.03,2.5,2.5,2.5h10.02c2.95,0,5.5-.45,7.57-1.32,2.11-.9,3.85-2.14,5.17-3.69,1.3-1.54,2.24-3.36,2.8-5.42.53-1.96.8-4.05.8-6.22,0-2.87-.44-5.36-1.31-7.38-.89-2.07-2.15-3.78-3.75-5.08ZM494.04,726.11c-.35,1.3-.93,2.44-1.73,3.4-.78.94-1.84,1.69-3.15,2.24-1.35.57-3.09.86-5.16.86h-6.74v-21.52h5.69c1.8,0,3.48.19,4.97.55,1.39.34,2.59.91,3.56,1.7.97.78,1.71,1.79,2.26,3.09.57,1.34.86,3.06.86,5.1,0,1.63-.19,3.17-.56,4.56ZM426.54,706.01c-.34-.25-.72-.41-1.13-.48l-17.13-.02c-1.47,0-2.5,1.03-2.5,2.5v27.57c0,.94.4,1.54.74,1.88.49.49,1.17.74,2.03.74.75,0,1.7-.09,2.34-.79.3-.33.67-.92.67-1.83v-7.44h10.48l.26-.02c.42-.07.8-.23,1.15-.48.31-.21.58-.48.79-.81.27-.42.41-.94.41-1.53,0-.56-.14-1.06-.41-1.5-.22-.33-.48-.61-.8-.81-.42-.3-.9-.46-1.41-.46h-10.48v-11.42h13.57c.51,0,1-.16,1.41-.46.32-.21.58-.48.8-.82.27-.42.4-.94.4-1.53s-.15-1.11-.45-1.53c-.21-.3-.46-.54-.76-.74ZM459.71,705.51c-.42,0-1.72,0-2.4,1.07-.3.46-.45.99-.45,1.55v19.07l-16.62-20.38c-.49-.58-.92-.92-1.38-1.1-1.46-.56-2.96.07-3.4,1.33-.16.44-.23.92-.23,1.43v27.1c0,.82.24,1.46.69,1.91.46.47,1.13.71,1.97.71,2.02,0,2.93-1.31,2.93-2.62v-19.03l16.71,20.28c.19.22.37.41.52.58.33.36.93.79,1.91.79s1.73-.44,2.14-1.2c.25-.46.36-1.03.36-1.84v-27.02c0-.53-.13-1.03-.38-1.48-.3-.52-.95-1.14-2.35-1.14ZM673.49,721.93c-.5-1.38-1.24-2.55-2.18-3.46-.95-.91-2.1-1.58-3.42-1.99-2.42-.74-5.67-.78-8.07.07l.38-3.63h6.91c4.52,0,5.19-2.06,5.19-3.28,0-.57-.12-1.08-.35-1.5-.59-1.09-2.1-1.43-3.2-.86-.15.04-.36.08-.63.12-.18.03-.54.06-1.25.06h-9.4c-1.44,0-2.46.94-2.53,2.24l-1.21,11.18c-.06.56-.1,1.39.36,2.1.74,1.14,2.38,1.38,3.66.58l.82-.55c.31-.21.73-.43,1.25-.66.53-.24,1.16-.46,1.87-.65,1.22-.34,2.92-.38,4.18,0,.5.15.92.4,1.29.75.36.35.66.86.88,1.51.25.73.37,1.68.37,2.84,0,1.01-.15,1.93-.44,2.72-.28.77-.67,1.41-1.16,1.93-.49.52-1.06.91-1.74,1.19-.68.29-1.43.43-2.24.43-1.37,0-2.47-.29-3.28-.86-.64-.45-.93-1.04-.93-1.91,0-.5.03-.71.05-.79.08-.42.11-.72.11-.92,0-1.19-.8-2.58-3.05-2.58-1.04,0-1.92.6-2.41,1.65-.32.68-.48,1.48-.48,2.45,0,1.21.28,2.37.84,3.43.54,1.02,1.27,1.92,2.18,2.67.9.74,1.95,1.32,3.14,1.74,1.18.41,2.47.62,3.83.62,1.6,0,3.12-.29,4.5-.87,1.39-.58,2.61-1.4,3.63-2.46,1.02-1.05,1.82-2.32,2.38-3.78.56-1.44.84-3.04.84-4.75,0-1.85-.24-3.47-.73-4.8ZM642.58,711.87c-1.18-1.43-2.6-2.57-4.24-3.39-3.35-1.67-7.71-1.65-11.01,0-1.64.82-3.07,1.98-4.24,3.42-1.14,1.42-2.03,3.09-2.64,4.98-.6,1.85-.9,3.87-.9,5.99s.3,4.17.9,6.03c.61,1.89,1.49,3.55,2.62,4.94,1.15,1.42,2.57,2.55,4.2,3.36,1.65.82,3.5,1.23,5.5,1.23s3.85-.41,5.52-1.23c1.64-.81,3.07-1.94,4.26-3.38,1.15-1.4,2.06-3.07,2.7-4.95.63-1.86.95-3.9.95-6.05s-.31-4.14-.93-6c-.62-1.88-1.52-3.55-2.68-4.96ZM639.8,726.99c-.39,1.23-.94,2.29-1.62,3.16-.67.85-1.46,1.51-2.4,1.99-.92.48-1.9.71-3.01.71s-2.12-.23-2.99-.68c-.89-.46-1.67-1.13-2.32-1.98-.68-.88-1.2-1.95-1.57-3.16-.38-1.25-.57-2.65-.57-4.16s.2-2.89.59-4.16c.38-1.24.92-2.32,1.59-3.2.65-.85,1.44-1.52,2.34-2,.89-.47,1.87-.7,3-.7s2.12.23,3.02.7c.93.49,1.7,1.14,2.36,2,.68.89,1.21,1.96,1.59,3.19.39,1.26.59,2.65.59,4.13s-.2,2.9-.6,4.16ZM609.24,711.87c-1.18-1.43-2.6-2.57-4.24-3.39-3.35-1.67-7.71-1.65-11.01,0-1.64.82-3.07,1.98-4.24,3.42-1.14,1.42-2.03,3.09-2.64,4.98-.6,1.85-.9,3.87-.9,5.99s.3,4.17.9,6.03c.61,1.89,1.49,3.55,2.62,4.94,1.15,1.42,2.57,2.55,4.2,3.36,1.65.82,3.5,1.23,5.5,1.23s3.85-.41,5.52-1.23c1.64-.81,3.07-1.94,4.26-3.38,1.15-1.4,2.06-3.07,2.7-4.95.63-1.86.95-3.9.95-6.05s-.31-4.14-.93-6c-.62-1.88-1.52-3.55-2.68-4.96ZM606.46,726.99c-.39,1.23-.94,2.29-1.62,3.16-.67.85-1.46,1.51-2.4,1.99-.92.48-1.9.71-3.01.71s-2.12-.23-2.99-.68c-.89-.46-1.67-1.13-2.32-1.98-.68-.88-1.2-1.95-1.57-3.16-.38-1.25-.57-2.65-.57-4.16s.2-2.89.59-4.16c.38-1.24.92-2.32,1.59-3.2.65-.85,1.44-1.52,2.34-2,.89-.47,1.87-.7,3-.7s2.12.23,3.02.7c.93.49,1.7,1.14,2.36,2,.68.89,1.21,1.96,1.59,3.19.39,1.26.59,2.65.59,4.13s-.2,2.9-.6,4.16ZM578.84,731.76c-.54,0-1.06.18-1.51.53-.07.06-.16.11-.27.17-.06.04-.21.11-.48.19-.1.03-.85.13-2.47-.03-.79-.08-1.63-.17-2.53-.27-.93-.11-1.86-.2-2.8-.28-.2-.02-.4-.03-.6-.05.85-.65,1.7-1.3,2.56-1.96,1.13-.86,2.24-1.74,3.3-2.63,1.12-.94,2.12-1.95,3-3.02.9-1.11,1.64-2.32,2.19-3.6.59-1.35.88-2.86.88-4.46,0-1.49-.3-2.83-.89-3.99-.58-1.15-1.4-2.13-2.42-2.91-.99-.75-2.15-1.32-3.46-1.69-2.5-.7-5.54-.76-8.07.16-1.26.46-2.39,1.1-3.35,1.9-.99.83-1.77,1.81-2.32,2.93-.57,1.15-.86,2.4-.86,3.73,0,1.59.34,2.79,1.04,3.65.78.97,1.64,1.46,2.55,1.46.67,0,1.22-.12,1.7-.36.82-.41,1.3-1.21,1.3-2.14,0-.85-.35-1.37-.64-1.66-.05-.05-.09-.1-.07-.07-.02-.04-.04-.1-.06-.15,0,0-.05-.17-.05-.65,0-.56.1-1.06.31-1.53.21-.46.49-.84.86-1.16.39-.33.88-.6,1.47-.81,1.26-.43,3.02-.39,4.42-.09.61.13,1.12.35,1.53.63.37.26.66.59.88,1.01.22.41.33.94.33,1.59,0,1.21-.22,2.29-.67,3.21-.48,1-1.12,1.93-1.91,2.77-.84.9-1.79,1.74-2.85,2.52-1.14.84-2.3,1.69-3.48,2.54-1.21.88-2.4,1.82-3.53,2.81-1.2,1.04-2.24,2.21-3.08,3.44-.39.54-.59.9-.7,1.23-.11.33-.17.69-.17,1.06,0,1.43,1.05,2.42,2.54,2.42.34,0,.87-.06,2.36-.47.82-.23,1.94-.35,3.34-.35.56,0,1.25.04,2.06.13l2.66.27c.89.09,1.75.18,2.56.27.89.1,1.6.15,2.16.15.81,0,1.55-.1,2.19-.29.66-.2,1.23-.46,1.69-.79.5-.35.9-.76,1.16-1.19.31-.51.47-1.02.47-1.52,0-.42-.06-.81-.19-1.19-.3-.9-1.12-1.46-2.12-1.46ZM531.59,732.73c-.67.7-1.03,1.55-1.03,2.46s.31,1.71.9,2.39c.46.53,1.29,1.16,2.65,1.16,1.05,0,1.95-.4,2.61-1.16.59-.69.91-1.51.91-2.39s-.36-1.76-1.03-2.46c-1.4-1.45-3.65-1.41-5.01,0Z"/>
    <path class="cls-1" d="M336.61,390.61c-.61-.36-1.34-.45-2.06-.24-.51.15-.91.38-1.21.71-.17.19-.33.42-.53.79-.23.49-.55,1.03-.95,1.61-.4.57-.89,1.16-1.47,1.74-.57.57-1.23,1.09-1.99,1.57-.73.46-1.57.83-2.49,1.09-1.58.46-3.15.66-4.67.63-1.46-.04-2.84-.37-4.1-.97-1.25-.6-2.39-1.51-3.38-2.71-1-1.21-1.79-2.81-2.35-4.76-.69-2.39-.96-4.5-.78-6.26.17-1.73.63-3.22,1.37-4.43.74-1.22,1.71-2.24,2.88-3.02,1.23-.82,2.59-1.45,4.03-1.87.93-.27,1.84-.41,2.71-.43.83-.02,1.58.08,2.23.28.57.18,1.04.46,1.43.85.37.37.62.83.76,1.39v.05c.09.26.14.48.16.65.01.1.02.19.02.25l-.04.35c-.04.32-.01.64.08.96.34,1.19,1.48,2.16,3.24,1.65.72-.21,1.66-.8,2.07-2.46.25-1.01.2-2.12-.14-3.3-.38-1.3-1.04-2.44-1.97-3.38-.91-.92-2.02-1.64-3.31-2.12-1.25-.46-2.64-.7-4.15-.71-1.48.01-3.03.22-4.62.68-2.06.6-4,1.53-5.76,2.76-1.79,1.26-3.28,2.87-4.42,4.78-1.14,1.91-1.86,4.14-2.16,6.62-.3,2.48,0,5.27.88,8.31.77,2.64,1.9,4.88,3.38,6.66,1.48,1.78,3.21,3.17,5.13,4.12,1.92.94,4.02,1.48,6.23,1.59.31.02.63.02.95.02,1.87,0,3.78-.28,5.69-.83,1.32-.38,2.54-.89,3.62-1.51,1.07-.61,2.03-1.31,2.87-2.07.84-.76,1.57-1.56,2.16-2.38.58-.81,1.06-1.6,1.39-2.28.16-.28.29-.63.42-1.1.17-.62.18-1.22.02-1.78-.18-.63-.59-1.15-1.17-1.5ZM381.37,386.58l-.04-.18-19.47-25.92c-.31-.42-.69-.77-1.12-1.05-.64-.41-1.41-.52-2.3-.32-.94.2-1.62.63-2,1.27-.23.38-.41.85-.57,1.48l-6.89,31.18-.04.18c-.08.31-.08.64,0,.99.13.62.48,1.16.99,1.54.31.24.8.48,1.48.48.22,0,.45-.02.71-.08.6-.13,1.45-.38,1.94-1.09.24-.35.43-.74.55-1.24l1.21-5.67,17.04-3.69,3.43,4.64c.29.41.69.73,1.2.96.57.26,1.26.31,2.05.14,1.23-.27,1.94-.86,2.11-1.75.08-.43.09-.81,0-1.17-.05-.23-.14-.46-.28-.71ZM357.09,382.23l3.16-14.8,9,12.16-12.16,2.63ZM414.38,369.21c-.93-1.04-2.08-1.86-3.41-2.42-1.23-.52-2.59-.91-4.04-1.15-1.35-.23-2.7-.44-4.05-.63-1.49-.2-2.81-.42-3.92-.63-1-.19-1.84-.44-2.5-.74-.54-.25-.94-.55-1.23-.93-.28-.36-.47-.9-.58-1.59-.18-1.11.14-1.91,1.01-2.6,1.11-.88,2.78-1.5,4.97-1.85,1.89-.3,3.33-.22,4.28.24,1.13.55,1.21,1.09,1.24,1.29.03.16.01.23.01.23-.03.13-.06.24-.1.35-.09.22-.17.43-.24.62-.15.42-.19.85-.12,1.28.13.83.62,1.47,1.33,1.77.48.2.98.26,1.49.17.72-.11,1.75-.53,2.52-1.87.55-.96.72-2.12.51-3.45-.17-1.04-.57-2.02-1.2-2.91-.63-.89-1.5-1.62-2.57-2.19-1.01-.53-2.2-.89-3.55-1.09-1.33-.19-2.83-.16-4.47.1-1.83.29-3.45.77-4.82,1.42-1.41.68-2.58,1.51-3.48,2.49-.92,1.01-1.58,2.16-1.95,3.43-.37,1.26-.44,2.59-.23,3.95.28,1.74.88,3.14,1.81,4.18.88.98,1.96,1.74,3.2,2.26,1.14.48,2.41.83,3.78,1.05,1.24.2,2.52.41,3.82.62,1.23.2,2.43.39,3.59.56,1.04.15,1.97.39,2.79.71.72.28,1.33.66,1.8,1.13.39.39.64.95.76,1.72.11.71.05,1.35-.19,1.96-.26.65-.66,1.23-1.24,1.77-.62.57-1.4,1.07-2.33,1.48-.96.43-2.06.74-3.27.93-2.36.37-4.27.28-5.7-.26-1.16-.44-1.76-1.16-1.95-2.33h0c-.06-.41-.05-.62-.04-.69.03-.22.07-.4.12-.55.03-.09.05-.17.09-.23.25-.45.34-.95.26-1.44-.18-1.12-1.13-2.12-2.89-1.85-.96.15-1.77.73-2.43,1.71-.64.96-.82,2.23-.56,3.9.25,1.57.81,2.91,1.67,3.99.85,1.07,1.95,1.9,3.27,2.47,1.24.54,2.66.86,4.22.97.4.03.8.04,1.22.04,1.16,0,2.38-.1,3.66-.3,1.83-.29,3.51-.8,5.01-1.52,1.54-.74,2.84-1.67,3.87-2.78,1.05-1.13,1.82-2.43,2.29-3.87.48-1.46.59-3.03.33-4.65-.28-1.76-.92-3.21-1.89-4.31ZM460.73,375.59l-16.58-27.87c-.27-.46-.61-.85-1-1.16-.59-.47-1.35-.66-2.25-.57-.96.1-1.67.46-2.12,1.06-.27.36-.5.8-.72,1.41l-10.2,30.25-.07.18c-.11.3-.15.62-.11.99.07.63.35,1.2.82,1.64.33.31.89.65,1.76.65.12,0,.25,0,.38-.02.61-.06,1.48-.22,2.05-.87.28-.32.5-.69.68-1.17l1.81-5.51,17.34-1.84,2.91,4.99c.24.43.61.8,1.1,1.09.54.32,1.22.44,2.02.36,1.25-.13,2.02-.64,2.29-1.51.13-.42.17-.8.13-1.15-.02-.23-.09-.46-.2-.74l-.02-.18ZM437.06,368.84l4.73-14.37,7.64,13.06-12.38,1.31ZM518.27,350.49c-1.01-2.15-2.4-3.91-4.14-5.23-1.71-1.3-3.75-2.21-6.05-2.72-2.21-.48-4.62-.69-7.16-.6l-9.62.33c-.9.03-1.44.42-1.74.74-.3.32-.65.89-.62,1.79l1.03,29.71c.03.9.42,1.44.74,1.74.31.29.84.62,1.67.62.04,0,.07,0,.11,0l10.75-.37c3.13-.11,5.82-.68,7.98-1.68,2.2-1.02,3.99-2.4,5.32-4.08,1.32-1.67,2.25-3.63,2.76-5.82.49-2.1.7-4.34.62-6.64-.11-3.05-.66-5.67-1.66-7.78ZM513.81,363.45c-.33,1.44-.93,2.72-1.77,3.81-.83,1.07-1.96,1.94-3.38,2.6-1.46.68-3.34,1.06-5.6,1.14l-7.48.26-.82-23.57,6.35-.22c1.96-.07,3.77.07,5.41.41,1.53.32,2.88.91,3.99,1.73,1.08.81,1.96,1.93,2.62,3.33.67,1.44,1.06,3.31,1.13,5.53.06,1.77-.09,3.45-.44,4.98ZM555.97,370.99c-.4-.3-.88-.46-1.37-.46l-15.98-.14.05-5.71,12.3.11c.52.03.97-.15,1.38-.44.32-.2.59-.47.81-.81.27-.41.41-.92.41-1.5,0-.56-.12-1.06-.39-1.48-.21-.33-.48-.61-.79-.82-.4-.3-.88-.46-1.37-.46l-12.3-.11.11-12.32,14.9.13.13-.02c.41-.06.79-.22,1.13-.47.32-.21.59-.48.79-.8.27-.41.41-.92.42-1.51,0-.56-.12-1.06-.38-1.47-.21-.34-.48-.61-.79-.83-.4-.3-.88-.46-1.37-.46l-18-.16h-.03c-1.42,0-2.42.99-2.44,2.42l-.27,29.73c-.01,1.44.98,2.45,2.42,2.46l19.22.17h.02c.49,0,.96-.15,1.36-.44.29-.19.55-.43.76-.73.29-.41.44-.93.45-1.55,0-.58-.13-1.09-.39-1.52-.21-.33-.47-.61-.78-.81ZM615.51,348.46c-1.56-1.48-3.48-2.61-5.71-3.37-2.14-.73-4.52-1.19-7.05-1.39l-9.6-.73c-1.44-.11-2.51.82-2.62,2.25l-2.26,29.64c-.07.89.26,1.48.54,1.81s.81.74,1.71.81l10.73.82c.74.06,1.46.08,2.15.08,2.24,0,4.24-.29,5.96-.87,2.3-.77,4.23-1.94,5.74-3.47,1.49-1.52,2.63-3.36,3.39-5.48.72-2.04,1.18-4.23,1.35-6.53.23-3.05-.03-5.71-.79-7.92-.77-2.25-1.96-4.15-3.54-5.65ZM614.17,361.6c-.13,1.77-.47,3.42-.99,4.9-.49,1.4-1.23,2.6-2.18,3.59-.94.97-2.17,1.71-3.65,2.21-1.53.51-3.44.68-5.69.51l-7.46-.57,1.79-23.52,6.33.48c1.95.15,3.74.49,5.33,1.01,1.49.49,2.76,1.22,3.77,2.16.99.93,1.74,2.14,2.23,3.6.51,1.51.68,3.41.51,5.63ZM661.22,349.91c-1.79-.23-2.49.79-2.69,1.24-.21.44-.34.9-.4,1.37l-2.54,19.73c-.11.87-.4,1.65-.88,2.39-.49.75-1.13,1.36-1.94,1.87-.84.52-1.85.9-3,1.12-1.18.23-2.53.25-4.02.05-1.59-.2-2.94-.57-4.01-1.09-1.03-.5-1.86-1.1-2.46-1.79-.59-.68-.99-1.4-1.21-2.23-.23-.84-.29-1.72-.17-2.61l2.54-19.73c.11-.86-.03-1.59-.42-2.17-.3-.44-.9-1.01-2.08-1.16-1.37-.18-2.13.52-2.46.94-.4.51-.64,1.07-.71,1.66l-2.54,19.73c-.21,1.59-.09,3.18.35,4.71.44,1.55,1.22,2.99,2.33,4.26,1.09,1.26,2.5,2.34,4.2,3.2,1.68.85,3.68,1.43,5.96,1.73.91.12,1.79.17,2.64.17,1.21,0,2.36-.12,3.44-.35,1.86-.4,3.51-1.08,4.9-2.02,1.41-.95,2.57-2.12,3.43-3.5.86-1.38,1.41-2.89,1.61-4.5l2.54-19.73c.09-.69,0-1.33-.26-1.89-.21-.46-.77-1.25-2.11-1.42ZM694.25,385.31c-.32-.26-.7-.43-1.12-.5l-14-2.52,4.7-26.11c.09-.49.02-.98-.2-1.44-.16-.37-.4-.69-.73-.97-.37-.32-.84-.52-1.43-.63-.59-.11-1.1-.08-1.56.09-.4.15-.75.37-1.02.66-.36.35-.6.78-.69,1.27l-5.24,29.14c-.25,1.41.56,2.58,1.97,2.84l17.13,3.08c.19.05.38.08.57.08.29,0,.58-.06.85-.17.32-.1.71-.31,1.07-.73.32-.37.52-.84.63-1.43.1-.56.07-1.07-.1-1.53-.17-.47-.46-.85-.83-1.12ZM734.63,366.31c-.86-1.02-1.96-1.91-3.27-2.66-1.28-.73-2.74-1.29-4.36-1.67-2.09-.49-4.24-.63-6.37-.41-2.19.22-4.27.89-6.2,2-1.93,1.11-3.65,2.69-5.13,4.71-1.47,2.01-2.58,4.59-3.31,7.68-.63,2.68-.74,5.19-.32,7.46.41,2.28,1.24,4.34,2.45,6.1,1.21,1.76,2.78,3.26,4.65,4.44,1.84,1.16,3.92,2.02,6.18,2.55,1.3.3,2.57.46,3.77.46.04,0,.08,0,.13,0,1.23-.01,2.41-.14,3.52-.39,1.11-.25,2.13-.59,3.05-1.02.9-.42,1.7-.87,2.33-1.31.28-.17.56-.41.91-.75.46-.46.75-.98.88-1.53.15-.64.06-1.29-.28-1.89-.35-.61-.95-1.05-1.68-1.22-.52-.12-.98-.11-1.39.03-.24.08-.49.2-.85.43-.44.31-.99.63-1.62.94-.62.31-1.34.57-2.13.8-.77.22-1.61.35-2.5.39-.86.04-1.77-.05-2.71-.27-1.6-.37-3.07-.96-4.38-1.74-1.26-.75-2.3-1.71-3.1-2.85-.8-1.14-1.34-2.49-1.61-4.02-.28-1.54-.18-3.33.28-5.3.57-2.43,1.37-4.39,2.39-5.84,1-1.42,2.13-2.49,3.37-3.19,1.24-.7,2.58-1.11,3.99-1.22,1.48-.11,2.97,0,4.43.34.94.22,1.81.54,2.57.95.73.4,1.34.85,1.8,1.34.41.44.68.91.83,1.44.14.51.14,1.02-.01,1.58v.05c-.08.27-.14.49-.2.64-.04.09-.08.17-.12.24l-.19.27c-.2.27-.34.57-.41.88-.18.75-.04,1.47.38,2.03.37.49.92.83,1.63,1,.73.17,1.84.11,3.01-1.13.71-.76,1.21-1.75,1.49-2.95.31-1.31.29-2.63-.05-3.91-.34-1.25-.96-2.42-1.85-3.47ZM774.98,377.09c-.11-.38-.28-.72-.52-1.01-.3-.4-.71-.69-1.18-.83l-17.22-5.26c-.86-.26-1.5-.07-1.89.13-.39.21-.9.63-1.17,1.49l-8.68,28.43c-.42,1.37.25,2.63,1.62,3.05l18.39,5.61c.22.07.45.1.67.1.26,0,.52-.04.77-.13.34-.1.65-.26.94-.48.4-.31.69-.77.87-1.35.17-.56.19-1.09.06-1.56-.11-.38-.28-.72-.52-1.01-.3-.4-.71-.69-1.18-.84l-15.28-4.67,1.67-5.46,11.76,3.59c.47.14.97.13,1.45-.03.36-.11.7-.29.99-.54.38-.32.65-.77.82-1.33.17-.54.18-1.05.05-1.53-.11-.38-.28-.72-.52-1.01-.3-.4-.71-.69-1.18-.84l-11.76-3.59,3.6-11.79,14.12,4.31.25.06c.41.05.82.01,1.21-.13.36-.1.69-.29,1-.55.37-.32.64-.77.81-1.32.17-.54.18-1.05.05-1.53Z"/>
  </g>
  <g>
    <path class="cls-1" d="M374.85,630.41c-9.47,0-8.6-13.79-8.6-22.03v-72.44c0-9.52-7.8-17.2-17.2-17.2h-14.75c-1.75,0-3.1,1.27-3.05,2.95.05,1.52,1.2,2.61,2.77,2.74,1.33.12,2.35.45,3.11,1.03,3.07,2.33,3.07,9.44,3.07,21.22v45.83c0,12.65-1.06,22.18-2.87,28.39-3.55,12.13-14.58,11.67-16.39.44-.62-3.87-.76-9.07-.76-15.82v-69.58c0-10.47-8.91-17.2-17.2-17.2h-15.96c-1.69,0-3.07,1.26-3.07,2.82s1.26,2.72,2.87,2.81c1.24.07,2.95.42,4.01,1.67,2.68,3.15,2.82,10.99,2.82,23.51v48.04c0,53.07,42.55,45.15,49.24,27.06,4.05,11.5,15.56,11.46,20.52,11.46h11.15c2.19,0,3.09-1.64,3.09-2.88,0-1.47-1.2-2.82-2.8-2.82Z"/>
    <path class="cls-1" d="M420.38,630.41c-8.44-.7-7.83-11.98-7.83-23.35,0,0-.03-120.75-.03-125.55,0-9.73-8.01-17.2-17.2-17.2h-16.65c-1.72,0-3.11,1.28-3.11,2.86,0,1.49,1.22,2.71,2.84,2.84,8.44.7,7.83,11.98,7.83,23.35v125.55c0,9.73,8.01,17.2,17.2,17.2h16.68c1.72,0,3.11-1.28,3.11-2.86,0-1.49-1.22-2.71-2.84-2.84Z"/>
    <path class="cls-1" d="M553.56,630.41c-8.44-.7-7.83-11.98-7.83-23.35,0,0-.03-66.32-.03-71.12,0-9.73-8.01-17.2-17.2-17.2h-16.65c-1.72,0-3.11,1.28-3.11,2.86,0,1.49,1.22,2.71,2.84,2.84,8.44.7,7.83,11.98,7.83,23.35v71.12c0,9.73,8.01,17.2,17.2,17.2h16.68c1.72,0,3.11-1.28,3.11-2.86,0-1.49-1.22-2.71-2.84-2.84Z"/>
    <path class="cls-1" d="M531.52,504.34c8.12,0,14.72-6.8,14.72-15.17,0-10.03-6.44-16.05-14.72-16.05-10.44,0-14.48,9.28-14.48,16.05,0,7.91,5.53,15.17,14.48,15.17Z"/>
    <path class="cls-1" d="M207.79,464.31c-20.71,0-33.57,10.33-39.07,21.26-8.98,17.88.13,43.38,24.12,43.38,17.44,0,29.62-8.59,29.62-23.72,0-8.74-5.37-16.03-11.8-17.62-1.71-.42-3.97-.75-4.96.72-.48.72-.49,1.63-.08,2.38,5.84,10.84-2.33,16.79-8.92,16.79-10.75,0-14.93-13.45-13.01-22.15,3.76-17.06,30.97-20.6,44.31-3.28,7.55,9.81,14.86,29.59,14.86,71,0,19.18,2.81,74.35-28.28,76.8-3.66.29-6.8-2.39-6.8-5.79v-85.49c0-1.81-1.39-3.11-3.44-2.69-5.98,1.25-13.6,1.72-21.7-.05-2.76-.6-3.57,1.78-3.57,2.65v64.36c0,9.16-.4,16.17-1.56,20.83-1.79,7.17-6.14,6.67-7.74,6.73-1.7.06-3.04,1.27-3.06,2.81-.02,1.38.93,2.87,3.09,2.87h37.82c9.18,0,16.03-.78,22.21-2.52,12.11-3.41,44.42-18.73,44.42-80.96,0-64.63-32.42-88.33-66.45-88.33Z"/>
    <path class="cls-1" d="M646.8,630.41c-8.44-.7-7.83-11.98-7.83-23.35,0,0-.01-27.45-.02-48.31,0-9.4.84-45.81-30.42-41.9-6.44.81-13.46,3.84-17.85,12-2.75-6.04-8.88-10.11-15.66-10.11h-16.65c-1.72,0-3.11,1.28-3.11,2.86,0,1.49,1.22,2.71,2.84,2.84,8.44.7,7.83,11.98,7.83,23.35v71.12c0,9.73,8.01,17.2,17.2,17.2h16.68c1.72,0,3.11-1.28,3.11-2.86,0-1.49-1.22-2.71-2.84-2.84-8.44-.7-7.83-11.98-7.83-23.35,0,0-.01-26.33-.02-47.01.2-10.61,1.14-19.37,3.16-25.35,2.63-7.79,6.75-9.92,10.18-9.11,6.33,1.51,6.76,9.29,7.03,19.57.02.75.05,73.74.05,73.74,0,9.73,8.01,17.2,17.2,17.2h16.68c1.72,0,3.11-1.28,3.11-2.86,0-1.49-1.22-2.71-2.84-2.84Z"/>
    <path class="cls-1" d="M779.63,630.41c-8.44-.7-7.83-11.98-7.83-23.35,0,0-.03-120.75-.03-125.55,0-9.73-8.01-17.2-17.2-17.2h-16.65c-1.72,0-3.11,1.28-3.11,2.86,0,1.49,1.22,2.71,2.84,2.84,8.44.7,7.83,11.98,7.83,23.35v125.55c0,9.73,8.01,17.2,17.2,17.2h16.68c1.72,0,3.11-1.28,3.11-2.86,0-1.49-1.22-2.71-2.84-2.84Z"/>
    <path class="cls-1" d="M826.03,630.41c-8.44-.7-7.83-11.98-7.83-23.35,0,0-.03-120.75-.03-125.55,0-9.73-8.01-17.2-17.2-17.2h-16.65c-1.72,0-3.11,1.28-3.11,2.86,0,1.49,1.22,2.71,2.84,2.84,8.44.7,7.83,11.98,7.83,23.35v125.55c0,9.73,8.01,17.2,17.2,17.2h16.68c1.72,0,3.11-1.28,3.11-2.86,0-1.49-1.22-2.71-2.84-2.84Z"/>
    <path class="cls-1" d="M497.21,599.97c-1.78-.47-3.41,1.02-3.54,2.7-1.32,17.59-7.43,26.38-16.46,26.38-4.55,0-12.01-1.63-15.58-15.72-2.81-11.11-3.2-27.88-3.2-43.72,0-39.59,7.32-45.46,12.43-46.92,6-1.71,12.67,2.52,12.39,11.92-.33,10.93-9.25,8.7-10.35,8.6-1.03-.1-2.49.66-2.4,2.58.09,1.81,2.85,13.65,13.94,13.65,23.79,0,20.28-42.89-10.19-42.89-13.07,0-23.74,6.5-31.26,18.28-7.43,11.63-11.35,27.85-11.35,46.9,0,60.42,40.58,59,50.5,54.63,7.93-3.49,15.3-10.81,17.25-33.17.08-.89-.25-2.7-2.19-3.21Z"/>
    <path class="cls-1" d="M724.06,599.97c-1.78-.47-3.41,1.02-3.54,2.7-1.32,17.59-7.43,26.38-16.46,26.38-4.55,0-13.26-1.63-16.83-15.72-1.6-6.32-2.41-14.47-2.82-23.23-.4-8.67,6.4-10.79,13.97-13.72,5.84-2.26,12.45-4.82,18.91-10.06,13.22-10.71,15.96-36.78-3.82-46.54-8.95-4.42-21.07-5.14-31.82.98-23.89,13.6-24.41,52.73-24.41,60.96,0,60.42,41.82,59,51.75,54.63,7.93-3.49,15.3-10.81,17.25-33.17.08-.89-.25-2.7-2.19-3.21ZM685.39,541.21c1.03-8.81,2.81-14.28,5.45-16.74,2.25-2.09,5.98-2.05,7.96-.21,3.51,3.27,4.6,13.34,3.99,22.48-.33,4.99-1.6,18.84-10.99,24.46-1.01.6-6.2,3.57-7.69,4.56-.04-16.03.36-26.78,1.27-34.56Z"/>
    <path class="cls-1" d="M911.87,630.41c-9.47,0-8.6-13.79-8.6-22.03,0,0-.08-54.02-.08-56.19,0-15.15-3.97-35.66-32.56-35.66-18.33,0-28.54,9.29-30.85,20.08-2.38,11.15,2.58,22.79,14.98,22.79,11.09,0,13.85-11.83,13.94-13.64.1-1.93-1.37-2.68-2.4-2.58-1.08.11-9.72,2.24-10.3-8.12-.35-6.29,3.72-12.22,10.5-12.22,10.01,0,10.75,13.45,10.75,25.36,0,16.95-11.45,20.69-21.97,26.11,0,0-19.94,7.6-20.46,32.14-.53,25.08,13.6,30.73,19.89,31.43,17.61,1.98,23.9-9.73,25.2-13.24,4.05,11.5,15.56,11.46,20.52,11.46h11.15c2.19,0,3.09-1.64,3.09-2.88,0-1.47-1.2-2.82-2.8-2.82ZM877.22,592.52c0,13.1-.09,22.29-1.74,27.64-2.44,7.91-11.66,8.03-14.43-1.4-1-3.4-1.7-8.59-1.7-16.54,0-25.8,15.64-29.52,17.9-34.04l-.03,24.33Z"/>
  </g>
</svg>